<svg xmlns="http://www.w3.org/2000/svg" overflow="visible" viewBox="-30 -35 60 70" width="240" height="240">
  <defs>
    <filter id="glow" x="-50%" y="-50%" width="200%" height="200%">
      <feGaussianBlur stdDeviation="4" result="b1"/><feGaussianBlur stdDeviation="8" result="b2"/><feMerge><feMergeNode in="b2"/><feMergeNode in="b1"/><feMergeNode in="SourceGraphic"/></feMerge>
    </filter>
  </defs>
  <g>
    <animateTransform attributeName="transform" type="translate" values="0,0;0,-6;0,0" dur="2s" repeatCount="indefinite"/>
    <circle cx="0" cy="0" r="22" fill="#00ffff" opacity="0.05" filter="url(#glow)">
      <animate attributeName="r" values="22;28;22" dur="2s" repeatCount="indefinite"/>
    </circle>
    <path d="M-16,-4 Q-18,-20 -8,-24 Q0,-28 8,-24 Q18,-20 16,-4 Q18,10 14,16 Q12,24 0,26 Q-12,24 -14,16 Q-18,10 -16,-4Z" fill="none" stroke="#00ffff" stroke-width="2" filter="url(#glow)">
      <animate attributeName="opacity" values="0.6;1;0.6" dur="1.5s" repeatCount="indefinite"/>
    </path>
    <path d="M-16,-4 Q-18,-20 -8,-24 Q0,-28 8,-24 Q18,-20 16,-4" fill="#00ffff" opacity="0.06"/>
    <ellipse cx="-6" cy="-8" rx="4" ry="5" fill="#003333" stroke="#00ffff" stroke-width="1"/>
    <ellipse cx="6" cy="-8" rx="4" ry="5" fill="#003333" stroke="#00ffff" stroke-width="1"/>
    <circle cx="-5" cy="-9" r="2" fill="#00ffff" filter="url(#glow)">
      <animate attributeName="cx" values="-5;-7;-5" dur="1.2s" repeatCount="indefinite"/>
    </circle>
    <circle cx="7" cy="-9" r="2" fill="#00ffff" filter="url(#glow)">
      <animate attributeName="cx" values="7;5;7" dur="1.2s" repeatCount="indefinite"/>
    </circle>
    <path d="M-5,0 Q0,6 5,0" fill="none" stroke="#00ffff" stroke-width="1" opacity="0.5"/>
    <path d="M-12,18 Q-6,22 0,22 Q6,22 12,18" fill="none" stroke="#00ffff" stroke-width="1" opacity="0.3"/>
  </g>
</svg>
