<svg xmlns="http://www.w3.org/2000/svg" overflow="visible" viewBox="0 0 48 48" width="48" height="48">
  <defs>
    <filter id="glow" filterUnits="userSpaceOnUse" x="-80" y="-80" width="160" height="160"><feGaussianBlur stdDeviation="2" result="blur"/><feMerge><feMergeNode in="blur"/><feMergeNode in="SourceGraphic"/></feMerge></filter>
    <filter id="glow-strong" filterUnits="userSpaceOnUse" x="-80" y="-80" width="160" height="160"><feGaussianBlur stdDeviation="3" result="blur"/><feMerge><feMergeNode in="blur"/><feMergeNode in="SourceGraphic"/></feMerge></filter>
  </defs>
  <path d="M24,6 Q20,12 14,14 Q10,16 8,20 Q6,24 10,22 Q14,20 20,22" fill="none" stroke="#ff6600" stroke-width="1.5" filter="url(#glow)">
    <animate attributeName="d" values="M24,6 Q20,12 14,14 Q10,16 8,20 Q6,24 10,22 Q14,20 20,22;M24,4 Q20,10 14,12 Q10,14 8,18 Q6,22 10,20 Q14,18 20,20;M24,6 Q20,12 14,14 Q10,16 8,20 Q6,24 10,22 Q14,20 20,22" dur="2s" repeatCount="indefinite"/>
  </path>
  <path d="M24,6 Q28,12 34,14 Q38,16 40,20 Q42,24 38,22 Q34,20 28,22" fill="none" stroke="#ff6600" stroke-width="1.5" filter="url(#glow)">
    <animate attributeName="d" values="M24,6 Q28,12 34,14 Q38,16 40,20 Q42,24 38,22 Q34,20 28,22;M24,4 Q28,10 34,12 Q38,14 40,18 Q42,22 38,20 Q34,18 28,20;M24,6 Q28,12 34,14 Q38,16 40,20 Q42,24 38,22 Q34,20 28,22" dur="2s" repeatCount="indefinite"/>
  </path>
  <ellipse cx="24" cy="24" rx="8" ry="6" fill="#ff660033" stroke="#ff4400" stroke-width="1" filter="url(#glow)"/>
  <ellipse cx="24" cy="24" rx="5" ry="4" fill="#ff660066" stroke="#ffcc00" stroke-width="0.5"/>
  <circle cx="20" cy="22" r="1.5" fill="#fff" filter="url(#glow)"/>
  <circle cx="28" cy="22" r="1.5" fill="#fff" filter="url(#glow)"/>
  <path d="M22,26 Q24,28 26,26" fill="none" stroke="#ffcc00" stroke-width="0.8"/>
  <path d="M24,30 L24,38" stroke="#ff6600" stroke-width="2" filter="url(#glow)">
    <animate attributeName="d" values="M24,30 L24,38;M24,30 L22,40;M24,30 L24,38" dur="1.5s" repeatCount="indefinite"/>
  </path>
  <path d="M24,30 Q20,34 16,36 Q12,38 10,36" fill="none" stroke="#ff4400" stroke-width="1.5" filter="url(#glow)">
    <animate attributeName="d" values="M24,30 Q20,34 16,36 Q12,38 10,36;M24,30 Q18,36 14,38 Q10,40 8,38;M24,30 Q20,34 16,36 Q12,38 10,36" dur="1.5s" repeatCount="indefinite"/>
  </path>
  <path d="M24,30 Q28,34 32,36 Q36,38 38,36" fill="none" stroke="#ff4400" stroke-width="1.5" filter="url(#glow)">
    <animate attributeName="d" values="M24,30 Q28,34 32,36 Q36,38 38,36;M24,30 Q30,36 34,38 Q38,40 40,38;M24,30 Q28,34 32,36 Q36,38 38,36" dur="1.5s" repeatCount="indefinite"/>
  </path>
  <circle cx="24" cy="14" r="2" fill="#ffcc00" opacity="0.6" filter="url(#glow-strong)">
    <animate attributeName="r" values="2;3;2" dur="1s" repeatCount="indefinite"/>
    <animate attributeName="opacity" values="0.6;1;0.6" dur="1s" repeatCount="indefinite"/>
  </circle>
</svg>
