<svg xmlns="http://www.w3.org/2000/svg" overflow="visible" viewBox="-30 -35 60 70" width="240" height="240">
  <defs>
    <filter id="glow" filterUnits="userSpaceOnUse" x="-500" y="-500" width="2000" height="2000">
      <feGaussianBlur stdDeviation="3" result="b1"/><feGaussianBlur stdDeviation="6" result="b2"/><feMerge><feMergeNode in="b2"/><feMergeNode in="b1"/><feMergeNode in="SourceGraphic"/></feMerge>
    </filter>
  </defs>
  <g>
    <animateTransform attributeName="transform" type="translate" values="0,0;0,-5;0,0" dur="2s" repeatCount="indefinite"/>
    <circle cx="0" cy="0" r="24" fill="#ff6600" opacity="0.06">
      <animate attributeName="r" values="24;30;24" dur="2s" repeatCount="indefinite"/>
    </circle>
    <path d="M-14,-3 Q-16,-17 -8,-22 Q0,-27 8,-22 Q16,-17 14,-3 Q16,6 12,12 Q10,18 0,20 Q-10,18 -12,12 Q-16,6 -14,-3Z" fill="none" stroke="#ff6600" stroke-width="2" filter="url(#glow)"/>
    <ellipse cx="-6" cy="-8" rx="4" ry="4.5" fill="#331100" stroke="#ff6600" stroke-width="1.2"/>
    <ellipse cx="6" cy="-8" rx="4" ry="4.5" fill="#331100" stroke="#ff6600" stroke-width="1.2"/>
    <circle cx="-6" cy="-8" r="2" fill="#ff6600" filter="url(#glow)">
      <animate attributeName="r" values="2;0.8;2" dur="0.3s" repeatCount="indefinite"/>
    </circle>
    <circle cx="6" cy="-8" r="2" fill="#ff6600" filter="url(#glow)">
      <animate attributeName="r" values="2;0.8;2" dur="0.3s" repeatCount="indefinite"/>
    </circle>
    <path d="M-2,0 L0,3 L2,0" fill="none" stroke="#ff6600" stroke-width="1.2"/>
    <rect x="-6" y="5" width="3" height="4" rx="0.8" fill="none" stroke="#ff6600" stroke-width="0.8"/>
    <rect x="-2" y="5" width="3" height="4" rx="0.8" fill="none" stroke="#ff6600" stroke-width="0.8"/>
    <rect x="2" y="5" width="3" height="4" rx="0.8" fill="none" stroke="#ff6600" stroke-width="0.8"/>
    <rect x="6" y="5" width="3" height="4" rx="0.8" fill="none" stroke="#ff6600" stroke-width="0.8"/>
  </g>
</svg>
