<svg xmlns="http://www.w3.org/2000/svg" overflow="visible" viewBox="0 0 320 240" width="640" height="480">
  <defs>
    <linearGradient id="sky" x1="0" y1="0" x2="0" y2="1">
      <stop offset="0%" stop-color="#050510"/><stop offset="30%" stop-color="#0a0520"/><stop offset="100%" stop-color="#100530"/>
    </linearGradient>
    <filter id="glow" filterUnits="userSpaceOnUse" x="-500" y="-500" width="2000" height="2000"><feGaussianBlur stdDeviation="3"/></filter>
    <filter id="glowBig" filterUnits="userSpaceOnUse" x="-500" y="-500" width="2000" height="2000"><feGaussianBlur stdDeviation="6"/></filter>
  </defs>
  <rect width="320" height="240" fill="url(#sky)"/>
  <g filter="url(#glowBig)" opacity="0.4">
    <circle cx="120" cy="150" r="40" fill="#ffcc00">
      <animate attributeName="r" values="40;48;40" dur="5s" repeatCount="indefinite"/>
      <animate attributeName="opacity" values="0.4;0.2;0.4" dur="5s" repeatCount="indefinite"/>
    </circle>
    <circle cx="240" cy="160" r="35" fill="#ff9900">
      <animate attributeName="r" values="35;43;35" dur="4s" repeatCount="indefinite"/>
    </circle>
    <circle cx="50" cy="140" r="30" fill="#ffff00">
      <animate attributeName="r" values="30;38;30" dur="3.5s" repeatCount="indefinite"/>
    </circle>
  </g>
  <path d="M0,240 L0,180 Q40,160 80,170 Q120,155 160,165 Q200,150 240,160 Q280,145 320,170 L320,240 Z" fill="#0d0d25" opacity="0.5">
    <animate attributeName="d" values="M0,240 L0,180 Q40,160 80,170 Q120,155 160,165 Q200,150 240,160 Q280,145 320,170 L320,240 Z;M0,240 L0,182 Q40,163 80,172 Q120,158 160,167 Q200,153 240,162 Q280,148 320,172 L320,240 Z;M0,240 L0,180 Q40,160 80,170 Q120,155 160,165 Q200,150 240,160 Q280,145 320,170 L320,240 Z" dur="8s" repeatCount="indefinite"/>
  </path>
  <path d="M0,240 L0,200 Q60,180 120,190 Q180,175 240,185 Q280,175 320,195 L320,240 Z" fill="#0a0a20"/>
  <g fill="none" stroke="#ffcc00" stroke-width="1.2" opacity="0.4">
    <rect x="100" y="130" width="8" height="50"/><rect x="115" y="125" width="6" height="55"/>
    <rect x="180" y="135" width="7" height="45"/><rect x="193" y="128" width="5" height="52"/>
    <rect x="50" y="145" width="6" height="35"/><rect x="250" y="140" width="7" height="40"/>
  </g>
  <g opacity="0.5">
    <path d="M100,130 L104,118 L108,130" fill="none" stroke="#ffcc00" stroke-width="1.2"><animate attributeName="opacity" values="0.5;0.2;0.5" dur="2s" repeatCount="indefinite"/></path>
    <path d="M115,125 L118,115 L121,125" fill="none" stroke="#ffcc00" stroke-width="1.2"><animate attributeName="opacity" values="0.5;0.15;0.5" dur="2.5s" repeatCount="indefinite"/></path>
    <path d="M180,135 L183,125 L186,135" fill="none" stroke="#ffcc00" stroke-width="1.2"><animate attributeName="opacity" values="0.5;0.2;0.5" dur="1.8s" repeatCount="indefinite"/></path>
    <path d="M193,128 L195.5,118 L198,128" fill="none" stroke="#ffcc00" stroke-width="1.2"><animate attributeName="opacity" values="0.5;0.1;0.5" dur="3s" repeatCount="indefinite"/></path>
  </g>
  <g opacity="0.5">
    <circle cx="30" cy="20" r="1.2" fill="#ffffff"><animate attributeName="opacity" values="0.5;0.1;0.5" dur="1.5s" repeatCount="indefinite"/></circle>
    <circle cx="120" cy="35" r="0.8" fill="#ffffff"><animate attributeName="opacity" values="0.5;0.15;0.5" dur="2.2s" repeatCount="indefinite"/></circle>
    <circle cx="200" cy="25" r="1.5" fill="#ffffff"><animate attributeName="opacity" values="0.5;0.1;0.5" dur="1.8s" repeatCount="indefinite"/></circle>
    <circle cx="280" cy="40" r="0.6" fill="#ffffff"><animate attributeName="opacity" values="0.5;0.2;0.5" dur="2.5s" repeatCount="indefinite"/></circle>
  </g>
  <g filter="url(#glow)" opacity="0.5">
    <circle cx="110" cy="160" r="8" fill="#ffcc00"><animate attributeName="opacity" values="0.5;0.15;0.5" dur="1.5s" repeatCount="indefinite"/></circle>
    <circle cx="230" cy="165" r="6" fill="#ff9900"><animate attributeName="opacity" values="0.5;0.2;0.5" dur="2s" repeatCount="indefinite"/></circle>
  </g>
</svg>
