<svg xmlns="http://www.w3.org/2000/svg" overflow="visible" viewBox="0 0 48 48" width="48" height="48">
  <defs><filter id="g" filterUnits="userSpaceOnUse" x="-80" y="-80" width="160" height="160"><feGaussianBlur stdDeviation="1" result="b"/><feMerge><feMergeNode in="b"/><feMergeNode in="SourceGraphic"/></feMerge></filter></defs>
  <rect x="0" y="0" width="48" height="48" fill="#0a0a10"/>
  <rect x="0" y="0" width="48" height="48" fill="#0e0e16" opacity="0.6"/>
  <path d="M0,6 Q12,2 20,6 Q28,10 36,6 Q44,2 48,6" fill="none" stroke="#556677" stroke-width="0.6" opacity="0.2"/>
  <path d="M0,14 Q12,10 20,14 Q28,18 36,14 Q44,10 48,14" fill="none" stroke="#556677" stroke-width="0.4" opacity="0.15"/>
  <path d="M0,22 Q12,18 20,22 Q28,26 36,22 Q44,18 48,22" fill="none" stroke="#556677" stroke-width="0.6" opacity="0.2"/>
  <path d="M0,30 Q12,26 20,30 Q28,34 36,30 Q44,26 48,30" fill="none" stroke="#556677" stroke-width="0.4" opacity="0.15"/>
  <path d="M0,38 Q12,34 20,38 Q28,42 36,38 Q44,34 48,38" fill="none" stroke="#556677" stroke-width="0.6" opacity="0.2"/>
  <circle cx="12" cy="8" r="2.5" fill="#44556611" stroke="#667788" stroke-width="0.3" opacity="0.25"/>
  <circle cx="36" cy="24" r="3" fill="#44556611" stroke="#667788" stroke-width="0.3" opacity="0.2"/>
  <circle cx="24" cy="40" r="2" fill="#44556611" stroke="#667788" stroke-width="0.3" opacity="0.25"/>
  <circle cx="12" cy="8" r="0.4" fill="#8899aa" opacity="0.15"/>
  <circle cx="36" cy="24" r="0.5" fill="#8899aa" opacity="0.12"/>
  <circle cx="24" cy="40" r="0.4" fill="#8899aa" opacity="0.15"/>
</svg>
