<svg xmlns="http://www.w3.org/2000/svg" overflow="visible" viewBox="0 0 48 48" width="48" height="48">
  <defs><filter id="g" filterUnits="userSpaceOnUse" x="-500" y="-500" width="2000" height="2000"><feGaussianBlur stdDeviation="1" result="b"/><feMerge><feMergeNode in="b"/><feMergeNode in="SourceGraphic"/></feMerge></filter></defs>
  <rect x="0" y="0" width="48" height="48" fill="#0a0a16"/>
  <rect x="0" y="0" width="48" height="48" fill="#0e0e20" opacity="0.7"/>
  <polygon points="0,36 6,30 12,36 18,28 24,34 30,26 36,32 42,24 48,30 48,48 0,48" fill="#1a2a4a33" stroke="#3a8acc" stroke-width="0.6" opacity="0.5" filter="url(#g)">
    <animate attributeName="points" values="0,36 6,30 12,36 18,28 24,34 30,26 36,32 42,24 48,30 48,48 0,48;0,36 6,42 12,36 18,44 24,34 30,42 36,32 42,40 48,30 48,48 0,48;0,36 6,30 12,36 18,28 24,34 30,26 36,32 42,24 48,30 48,48 0,48" dur="2s" repeatCount="indefinite"/>
  </polygon>
  <polygon points="0,44 6,38 12,44 18,36 24,42 30,34 36,40 42,32 48,38 48,48 0,48" fill="#1a2a4a22" stroke="#2a7abb" stroke-width="0.4" opacity="0.35" filter="url(#g)">
    <animate attributeName="points" values="0,44 6,38 12,44 18,36 24,42 30,34 36,40 42,32 48,38 48,48 0,48;0,44 6,48 12,44 18,48 24,42 30,48 36,40 42,48 48,38 48,48 0,48;0,44 6,38 12,44 18,36 24,42 30,34 36,40 42,32 48,38 48,48 0,48" dur="2.4s" repeatCount="indefinite"/>
  </polygon>
  <line x1="8" y1="8" x2="16" y2="12" stroke="#4a9add" stroke-width="0.4" opacity="0.2"/>
  <line x1="32" y1="6" x2="40" y2="10" stroke="#4a9add" stroke-width="0.4" opacity="0.2"/>
  <line x1="14" y1="16" x2="22" y2="20" stroke="#4a9add" stroke-width="0.3" opacity="0.15"/>
  <line x1="28" y1="14" x2="36" y2="18" stroke="#4a9add" stroke-width="0.3" opacity="0.15"/>
  <line x1="4" y1="22" x2="12" y2="26" stroke="#4a9add" stroke-width="0.3" opacity="0.15"/>
  <line x1="38" y1="20" x2="46" y2="24" stroke="#4a9add" stroke-width="0.3" opacity="0.15"/>
  <line x1="12" y1="30" x2="20" y2="34" stroke="#4a9add" stroke-width="0.4" opacity="0.2"/>
  <line x1="30" y1="28" x2="38" y2="32" stroke="#4a9add" stroke-width="0.4" opacity="0.2"/>
</svg>
