<svg xmlns="http://www.w3.org/2000/svg" overflow="visible" viewBox="0 0 48 48" width="48" height="48">
  <rect x="0" y="0" width="48" height="48" fill="#0f1a0a"/>
  <rect x="0" y="0" width="48" height="48" fill="#1a3a0d" opacity="0.5"/>
  <path d="M0,0 L3,2 L6,0 L9,3 L12,1 L15,4 L18,2 L21,5 L24,2 L27,5 L30,3 L33,6 L36,3 L39,5 L42,2 L45,5 L48,3" fill="none" stroke="#2a5a10" stroke-width="0.8" opacity="0.5"/>
  <path d="M1,6 L4,8 L7,5 L10,9 L13,7 L16,10 L19,8 L22,11 L25,8 L28,11 L31,9 L34,12 L37,9 L40,11 L43,8 L46,11" fill="none" stroke="#2a5a10" stroke-width="0.6" opacity="0.4"/>
  <path d="M0,12 L3,14 L6,11 L9,15 L12,13 L15,16 L18,14 L21,17 L24,14 L27,17 L30,15 L33,18 L36,15 L39,17 L42,14 L45,17 L48,15" fill="none" stroke="#3a7a15" stroke-width="0.6" opacity="0.3"/>
  <path d="M2,18 L5,20 L8,17 L11,21 L14,19 L17,22 L20,20 L23,23 L26,20 L29,23 L32,21 L35,24 L38,21 L41,23 L44,20 L47,23" fill="none" stroke="#2a5a10" stroke-width="0.5" opacity="0.35"/>
  <path d="M0,24 L3,26 L6,23 L9,27 L12,25 L15,28 L18,26 L21,29 L24,26 L27,29 L30,27 L33,30 L36,27 L39,29 L42,26 L45,29 L48,27" fill="none" stroke="#3a7a15" stroke-width="0.5" opacity="0.25"/>
  <path d="M1,30 L4,32 L7,29 L10,33 L13,31 L16,34 L19,32 L22,35 L25,32 L28,35 L31,33 L34,36 L37,33 L40,35 L43,32 L46,35" fill="none" stroke="#2a5a10" stroke-width="0.6" opacity="0.35"/>
  <path d="M0,36 L3,38 L6,35 L9,39 L12,37 L15,40 L18,38 L21,41 L24,38 L27,41 L30,39 L33,42 L36,39 L39,41 L42,38 L45,41 L48,39" fill="none" stroke="#1a4a0a" stroke-width="0.8" opacity="0.4"/>
  <path d="M2,42 L5,44 L8,41 L11,45 L14,43 L17,46 L20,44 L23,47 L26,44 L29,47 L32,45 L35,48 L38,45 L41,47 L44,44 L47,47" fill="none" stroke="#3a7a15" stroke-width="0.6" opacity="0.3"/>
  <polygon points="4,2 5,0 7,3" fill="#4a9a20" opacity="0.3"/>
  <polygon points="14,4 16,1 17,4" fill="#4a9a20" opacity="0.25"/>
  <polygon points="28,3 30,0 31,3" fill="#4a9a20" opacity="0.35"/>
  <polygon points="40,2 42,0 43,3" fill="#4a9a20" opacity="0.3"/>
  <polygon points="8,16 10,13 11,16" fill="#4a9a20" opacity="0.25"/>
  <polygon points="22,20 24,17 25,20" fill="#4a9a20" opacity="0.3"/>
  <polygon points="36,18 38,15 39,18" fill="#4a9a20" opacity="0.25"/>
  <polygon points="6,28 8,25 9,28" fill="#4a9a20" opacity="0.3"/>
  <polygon points="20,32 22,29 23,32" fill="#4a9a20" opacity="0.25"/>
  <polygon points="34,30 36,27 37,30" fill="#4a9a20" opacity="0.3"/>
  <polygon points="10,40 12,37 13,40" fill="#4a9a20" opacity="0.25"/>
  <polygon points="30,42 32,39 33,42" fill="#4a9a20" opacity="0.3"/>
</svg>
