<svg xmlns="http://www.w3.org/2000/svg" overflow="visible" viewBox="0 0 48 48" width="48" height="48">
  <defs><filter id="g" x="-50%" y="-50%" width="200%" height="200%"><feGaussianBlur stdDeviation="1" result="b"/><feMerge><feMergeNode in="b"/><feMergeNode in="SourceGraphic"/></feMerge></filter></defs>
  <rect x="0" y="0" width="48" height="48" fill="#080804"/>
  <rect x="0" y="0" width="48" height="48" fill="#0e0e06" opacity="0.8"/>
  <ellipse cx="8" cy="6" rx="6" ry="3" fill="#1a1206" opacity="0.5"/>
  <ellipse cx="30" cy="4" rx="5" ry="2.5" fill="#1a1206" opacity="0.45"/>
  <ellipse cx="44" cy="8" rx="4" ry="2" fill="#1a1206" opacity="0.4"/>
  <ellipse cx="6" cy="22" rx="5.5" ry="3" fill="#1a1206" opacity="0.4"/>
  <ellipse cx="28" cy="20" rx="6" ry="3.5" fill="#1a1206" opacity="0.45"/>
  <ellipse cx="44" cy="24" rx="3.5" ry="2" fill="#1a1206" opacity="0.35"/>
  <ellipse cx="8" cy="40" rx="5" ry="3" fill="#1a1206" opacity="0.45"/>
  <ellipse cx="28" cy="42" rx="6" ry="3" fill="#1a1206" opacity="0.5"/>
  <ellipse cx="44" cy="38" rx="4.5" ry="2.5" fill="#1a1206" opacity="0.4"/>
  <ellipse cx="8" cy="6" rx="0.8" ry="0.5" fill="#3a2a12" opacity="0.3"/>
  <ellipse cx="30" cy="4" rx="0.6" ry="0.4" fill="#3a2a12" opacity="0.25"/>
  <ellipse cx="28" cy="20" rx="0.7" ry="0.5" fill="#3a2a12" opacity="0.3"/>
  <ellipse cx="28" cy="42" rx="0.8" ry="0.5" fill="#3a2a12" opacity="0.3"/>
</svg>
