<svg xmlns="http://www.w3.org/2000/svg" overflow="visible" viewBox="0 0 48 48" width="48" height="48">
  <defs><filter id="g" filterUnits="userSpaceOnUse" x="-500" y="-500" width="2000" height="2000"><feGaussianBlur stdDeviation="1" result="b"/><feMerge><feMergeNode in="b"/><feMergeNode in="SourceGraphic"/></feMerge></filter></defs>
  <rect x="0" y="0" width="48" height="48" fill="#0a0804"/>
  <rect x="0" y="0" width="48" height="48" fill="#0e0c06" opacity="0.7"/>
  <ellipse cx="8" cy="6" rx="6" ry="3" fill="#1a1408" stroke="#887744" stroke-width="0.4" opacity="0.35"/>
  <ellipse cx="34" cy="8" rx="5" ry="2.5" fill="#1a1408" stroke="#887744" stroke-width="0.4" opacity="0.3"/>
  <ellipse cx="6" cy="28" rx="5.5" ry="3" fill="#1a1408" stroke="#887744" stroke-width="0.4" opacity="0.3"/>
  <ellipse cx="30" cy="32" rx="6" ry="3.5" fill="#1a1408" stroke="#887744" stroke-width="0.4" opacity="0.35"/>
  <ellipse cx="44" cy="26" rx="3.5" ry="2" fill="#1a1408" stroke="#887744" stroke-width="0.4" opacity="0.25"/>
  <ellipse cx="8" cy="42" rx="4" ry="2.5" fill="#1a1408" stroke="#887744" stroke-width="0.4" opacity="0.3"/>
  <ellipse cx="34" cy="44" rx="5" ry="2.5" fill="#1a1408" stroke="#887744" stroke-width="0.4" opacity="0.3"/>
  <ellipse cx="20" cy="18" rx="3" ry="1.5" fill="#1a1408" stroke="#887744" stroke-width="0.3" opacity="0.2"/>
  <ellipse cx="8" cy="6" rx="0.6" ry="0.4" fill="#aa8855" opacity="0.2"/>
  <ellipse cx="30" cy="32" rx="0.7" ry="0.4" fill="#aa8855" opacity="0.2"/>
  <ellipse cx="34" cy="8" rx="0.5" ry="0.3" fill="#aa8855" opacity="0.15"/>
  <ellipse cx="34" cy="44" rx="0.5" ry="0.3" fill="#aa8855" opacity="0.15"/>
</svg>
