<svg xmlns="http://www.w3.org/2000/svg" overflow="visible" viewBox="0 0 48 48" width="48" height="48">
  <defs><filter id="g" filterUnits="userSpaceOnUse" x="-80" y="-80" width="160" height="160"><feGaussianBlur stdDeviation="1" result="b"/><feMerge><feMergeNode in="b"/><feMergeNode in="SourceGraphic"/></feMerge></filter></defs>
  <rect x="0" y="0" width="48" height="48" fill="#0a1008"/>
  <rect x="0" y="0" width="48" height="48" fill="#0e1a0a" opacity="0.7"/>
  <rect x="0" y="0" width="48" height="24" fill="#1a2a0e" opacity="0.3"/>
  <rect x="0" y="24" width="48" height="24" fill="#0e1a08" opacity="0.2"/>
  <circle cx="6" cy="5" r="4" fill="#2a3a14" opacity="0.5"/>
  <circle cx="20" cy="3" r="3" fill="#2a3a14" opacity="0.45"/>
  <circle cx="38" cy="6" r="3.5" fill="#2a3a14" opacity="0.5"/>
  <circle cx="8" cy="22" r="3" fill="#2a3a14" opacity="0.4"/>
  <circle cx="28" cy="20" r="4" fill="#2a3a14" opacity="0.45"/>
  <circle cx="42" cy="24" r="2.5" fill="#2a3a14" opacity="0.4"/>
  <circle cx="6" cy="40" r="3.5" fill="#2a3a14" opacity="0.45"/>
  <circle cx="26" cy="42" r="4" fill="#2a3a14" opacity="0.5"/>
  <circle cx="42" cy="38" r="3" fill="#2a3a14" opacity="0.4"/>
  <circle cx="6" cy="5" r="0.6" fill="#4a7a2a" opacity="0.35"/>
  <circle cx="20" cy="3" r="0.5" fill="#4a7a2a" opacity="0.3"/>
  <circle cx="28" cy="20" r="0.7" fill="#4a7a2a" opacity="0.3"/>
  <circle cx="26" cy="42" r="0.6" fill="#4a7a2a" opacity="0.35"/>
  <circle cx="38" cy="6" r="0.5" fill="#4a7a2a" opacity="0.3"/>
  <path d="M4,10 L8,12 L12,8 L16,14 L20,10" fill="none" stroke="#3a6a1a" stroke-width="0.4" opacity="0.2"/>
  <path d="M24,28 L28,30 L32,26 L36,32 L40,28" fill="none" stroke="#3a6a1a" stroke-width="0.4" opacity="0.2"/>
</svg>
