<svg xmlns="http://www.w3.org/2000/svg" overflow="visible" viewBox="0 0 48 48" width="48" height="48">
  <rect x="0" y="0" width="48" height="48" fill="#0a0804"/>
  <rect x="0" y="0" width="48" height="48" fill="#141004" opacity="0.6"/>
  <polygon points="2,3 10,0 14,6 6,9" fill="#1a1406" opacity="0.5"/>
  <polygon points="16,2 24,0 28,8 20,10" fill="#1a1406" opacity="0.4"/>
  <polygon points="30,4 38,2 42,8 34,10" fill="#1a1406" opacity="0.5"/>
  <polygon points="40,0 48,2 48,6 42,4" fill="#1a1406" opacity="0.35"/>
  <polygon points="2,16 10,14 14,20 6,22" fill="#1a1406" opacity="0.4"/>
  <polygon points="18,16 26,14 30,20 22,22" fill="#1a1406" opacity="0.5"/>
  <polygon points="34,14 42,12 46,18 38,20" fill="#1a1406" opacity="0.4"/>
  <polygon points="4,30 12,28 16,34 8,36" fill="#1a1406" opacity="0.45"/>
  <polygon points="22,32 30,30 34,36 26,38" fill="#1a1406" opacity="0.5"/>
  <polygon points="38,30 46,28 48,34 40,36" fill="#1a1406" opacity="0.4"/>
  <polygon points="2,44 10,42 14,48 6,48" fill="#1a1406" opacity="0.4"/>
  <polygon points="18,44 26,42 30,48 22,48" fill="#1a1406" opacity="0.5"/>
  <polygon points="34,44 42,42 46,48 38,48" fill="#1a1406" opacity="0.4"/>
  <line x1="4" y1="6" x2="8" y2="4" stroke="#3a2a12" stroke-width="0.3" opacity="0.15"/>
  <line x1="20" y1="6" x2="24" y2="4" stroke="#3a2a12" stroke-width="0.3" opacity="0.15"/>
  <line x1="36" y1="6" x2="40" y2="4" stroke="#3a2a12" stroke-width="0.3" opacity="0.15"/>
  <line x1="6" y1="20" x2="10" y2="18" stroke="#3a2a12" stroke-width="0.3" opacity="0.15"/>
  <line x1="22" y1="20" x2="26" y2="18" stroke="#3a2a12" stroke-width="0.3" opacity="0.15"/>
  <line x1="38" y1="18" x2="42" y2="16" stroke="#3a2a12" stroke-width="0.3" opacity="0.15"/>
  <line x1="8" y1="34" x2="12" y2="32" stroke="#3a2a12" stroke-width="0.3" opacity="0.15"/>
  <line x1="26" y1="36" x2="30" y2="34" stroke="#3a2a12" stroke-width="0.3" opacity="0.15"/>
  <line x1="42" y1="34" x2="46" y2="32" stroke="#3a2a12" stroke-width="0.3" opacity="0.15"/>
</svg>
