<svg xmlns="http://www.w3.org/2000/svg" viewBox="0 0 48 48" width="48" height="48">
  <rect x="0" y="0" width="48" height="48" fill="#0a0400"/>
  <rect x="0" y="0" width="48" height="8" fill="#1a0e04" stroke="#884422" stroke-width="0.5"/>
  <rect x="0" y="8" width="48" height="8" fill="#1a0e04" stroke="#884422" stroke-width="0.3" opacity="0.4"/>
  <rect x="0" y="16" width="48" height="8" fill="#1a0e04" stroke="#884422" stroke-width="0.3" opacity="0.35"/>
  <rect x="0" y="24" width="48" height="8" fill="#1a0e04" stroke="#884422" stroke-width="0.3" opacity="0.4"/>
  <rect x="0" y="32" width="48" height="8" fill="#1a0e04" stroke="#884422" stroke-width="0.3" opacity="0.35"/>
  <rect x="0" y="40" width="48" height="8" fill="#1a0e04" stroke="#884422" stroke-width="0.5"/>
  <line x1="12" y1="0" x2="12" y2="8" stroke="#aa6633" stroke-width="0.4" opacity="0.2"/>
  <line x1="24" y1="0" x2="24" y2="8" stroke="#aa6633" stroke-width="0.4" opacity="0.2"/>
  <line x1="36" y1="0" x2="36" y2="8" stroke="#aa6633" stroke-width="0.4" opacity="0.2"/>
  <line x1="8" y1="8" x2="8" y2="16" stroke="#aa6633" stroke-width="0.3" opacity="0.15"/>
  <line x1="20" y1="8" x2="20" y2="16" stroke="#aa6633" stroke-width="0.3" opacity="0.15"/>
  <line x1="32" y1="8" x2="32" y2="16" stroke="#aa6633" stroke-width="0.3" opacity="0.15"/>
  <line x1="44" y1="8" x2="44" y2="16" stroke="#aa6633" stroke-width="0.3" opacity="0.15"/>
  <line x1="16" y1="16" x2="16" y2="24" stroke="#aa6633" stroke-width="0.3" opacity="0.15"/>
  <line x1="28" y1="16" x2="28" y2="24" stroke="#aa6633" stroke-width="0.3" opacity="0.15"/>
  <line x1="40" y1="16" x2="40" y2="24" stroke="#aa6633" stroke-width="0.3" opacity="0.15"/>
  <line x1="4" y1="24" x2="4" y2="32" stroke="#aa6633" stroke-width="0.3" opacity="0.15"/>
  <line x1="16" y1="24" x2="16" y2="32" stroke="#aa6633" stroke-width="0.3" opacity="0.15"/>
  <line x1="28" y1="24" x2="28" y2="32" stroke="#aa6633" stroke-width="0.3" opacity="0.15"/>
  <line x1="40" y1="24" x2="40" y2="32" stroke="#aa6633" stroke-width="0.3" opacity="0.15"/>
  <line x1="12" y1="32" x2="12" y2="40" stroke="#aa6633" stroke-width="0.3" opacity="0.15"/>
  <line x1="24" y1="32" x2="24" y2="40" stroke="#aa6633" stroke-width="0.3" opacity="0.15"/>
  <line x1="36" y1="32" x2="36" y2="40" stroke="#aa6633" stroke-width="0.3" opacity="0.15"/>
  <line x1="8" y1="40" x2="8" y2="48" stroke="#aa6633" stroke-width="0.3" opacity="0.15"/>
  <line x1="20" y1="40" x2="20" y2="48" stroke="#aa6633" stroke-width="0.3" opacity="0.15"/>
  <line x1="32" y1="40" x2="32" y2="48" stroke="#aa6633" stroke-width="0.3" opacity="0.15"/>
  <line x1="44" y1="40" x2="44" y2="48" stroke="#aa6633" stroke-width="0.3" opacity="0.15"/>
  <path d="M4,4 L8,4" stroke="#cc8844" stroke-width="0.4" opacity="0.15"/>
  <path d="M28,4 L32,4" stroke="#cc8844" stroke-width="0.4" opacity="0.15"/>
</svg>
