<svg xmlns="http://www.w3.org/2000/svg" overflow="visible" viewBox="0 0 48 48" width="48" height="48">
  <defs><filter id="g" filterUnits="userSpaceOnUse" x="-500" y="-500" width="2000" height="2000"><feGaussianBlur stdDeviation="1" result="b"/><feMerge><feMergeNode in="b"/><feMergeNode in="SourceGraphic"/></feMerge></filter></defs>
  <rect x="0" y="0" width="48" height="48" fill="#0a080c"/>
  <rect x="0" y="0" width="48" height="48" fill="#0e0c12" opacity="0.7"/>
  <circle cx="8" cy="6" r="5" fill="#14101a" stroke="#445566" stroke-width="0.5" opacity="0.35"/>
  <circle cx="36" cy="8" r="4.5" fill="#14101a" stroke="#445566" stroke-width="0.5" opacity="0.3"/>
  <circle cx="6" cy="30" r="4" fill="#14101a" stroke="#445566" stroke-width="0.5" opacity="0.3"/>
  <circle cx="30" cy="34" r="5.5" fill="#14101a" stroke="#445566" stroke-width="0.5" opacity="0.35"/>
  <circle cx="44" cy="28" r="3" fill="#14101a" stroke="#445566" stroke-width="0.5" opacity="0.25"/>
  <circle cx="8" cy="44" r="3.5" fill="#14101a" stroke="#445566" stroke-width="0.5" opacity="0.3"/>
  <circle cx="38" cy="44" r="4" fill="#14101a" stroke="#445566" stroke-width="0.5" opacity="0.3"/>
  <circle cx="20" cy="16" r="2.5" fill="#14101a" stroke="#445566" stroke-width="0.3" opacity="0.2"/>
  <circle cx="8" cy="6" r="0.6" fill="#667788" opacity="0.2"/>
  <circle cx="30" cy="34" r="0.7" fill="#667788" opacity="0.2"/>
  <circle cx="36" cy="8" r="0.5" fill="#667788" opacity="0.15"/>
  <circle cx="38" cy="44" r="0.5" fill="#667788" opacity="0.15"/>
  <path d="M4,10 L8,12 L12,8" fill="none" stroke="#556677" stroke-width="0.3" opacity="0.12"/>
  <path d="M28,38 L32,40 L36,36" fill="none" stroke="#556677" stroke-width="0.3" opacity="0.12"/>
</svg>
