<svg xmlns="http://www.w3.org/2000/svg" overflow="visible" viewBox="0 0 48 48" width="48" height="48">
  <rect x="0" y="0" width="48" height="48" fill="#0a0a14"/>
  <rect x="0" y="0" width="48" height="48" fill="#12122a" opacity="0.6"/>
  <polygon points="2,4 12,2 14,12 4,14" fill="#161630" opacity="0.4"/>
  <polygon points="18,2 28,0 30,10 20,12" fill="#161630" opacity="0.35"/>
  <polygon points="34,4 44,2 46,12 36,14" fill="#161630" opacity="0.4"/>
  <polygon points="0,18 10,16 12,26 2,28" fill="#161630" opacity="0.35"/>
  <polygon points="16,18 26,16 28,26 18,28" fill="#161630" opacity="0.4"/>
  <polygon points="32,18 42,16 44,26 34,28" fill="#161630" opacity="0.35"/>
  <polygon points="4,32 14,30 16,40 6,42" fill="#161630" opacity="0.4"/>
  <polygon points="20,32 30,30 32,40 22,42" fill="#161630" opacity="0.35"/>
  <polygon points="36,32 46,30 48,40 38,42" fill="#161630" opacity="0.4"/>
  <polygon points="2,44 12,42 14,48 4,48" fill="#161630" opacity="0.35"/>
  <polygon points="22,44 32,42 34,48 24,48" fill="#161630" opacity="0.4"/>
  <polygon points="40,44 48,42 48,48 42,48" fill="#161630" opacity="0.35"/>
  <path d="M4,6 L8,10" stroke="#3a4a6a" stroke-width="0.3" opacity="0.12"/>
  <path d="M22,4 L26,8" stroke="#3a4a6a" stroke-width="0.3" opacity="0.12"/>
  <path d="M38,6 L42,10" stroke="#3a4a6a" stroke-width="0.3" opacity="0.12"/>
  <path d="M4,22 L8,26" stroke="#3a4a6a" stroke-width="0.3" opacity="0.12"/>
  <path d="M22,22 L26,26" stroke="#3a4a6a" stroke-width="0.3" opacity="0.12"/>
  <path d="M38,22 L42,26" stroke="#3a4a6a" stroke-width="0.3" opacity="0.12"/>
</svg>
