<svg xmlns="http://www.w3.org/2000/svg" overflow="visible" viewBox="0 0 48 48" width="48" height="48">
  <defs><filter id="g" filterUnits="userSpaceOnUse" x="-80" y="-80" width="160" height="160"><feGaussianBlur stdDeviation="1" result="b"/><feMerge><feMergeNode in="b"/><feMergeNode in="SourceGraphic"/></feMerge></filter></defs>
  <rect x="0" y="0" width="48" height="48" fill="#080604"/>
  <rect x="0" y="0" width="48" height="48" fill="#0e0a04" opacity="0.8"/>
  <rect x="0" y="0" width="12" height="48" fill="#1a0e04" opacity="0.3"/>
  <rect x="24" y="0" width="12" height="48" fill="#1a0e04" opacity="0.3"/>
  <line x1="12" y1="0" x2="12" y2="48" stroke="#886633" stroke-width="0.8" opacity="0.4"/>
  <line x1="24" y1="0" x2="24" y2="48" stroke="#886633" stroke-width="0.5" opacity="0.3"/>
  <line x1="36" y1="0" x2="36" y2="48" stroke="#886633" stroke-width="0.8" opacity="0.4"/>
  <line x1="0" y1="10" x2="48" y2="10" stroke="#664422" stroke-width="0.4" opacity="0.15"/>
  <line x1="0" y1="20" x2="48" y2="20" stroke="#664422" stroke-width="0.4" opacity="0.15"/>
  <line x1="0" y1="30" x2="48" y2="30" stroke="#664422" stroke-width="0.4" opacity="0.15"/>
  <line x1="0" y1="40" x2="48" y2="40" stroke="#664422" stroke-width="0.4" opacity="0.15"/>
  <ellipse cx="6" cy="15" rx="3" ry="0.5" fill="#886633" opacity="0.15"/>
  <ellipse cx="30" cy="25" rx="4" ry="0.5" fill="#886633" opacity="0.12"/>
  <ellipse cx="18" cy="35" rx="3.5" ry="0.5" fill="#886633" opacity="0.15"/>
  <ellipse cx="42" cy="45" rx="3" ry="0.5" fill="#886633" opacity="0.12"/>
  <circle cx="6" cy="6" r="0.5" fill="#aa7744" opacity="0.2"/>
  <circle cx="30" cy="16" r="0.4" fill="#aa7744" opacity="0.15"/>
  <circle cx="18" cy="28" r="0.5" fill="#aa7744" opacity="0.2"/>
  <circle cx="42" cy="36" r="0.4" fill="#aa7744" opacity="0.15"/>
</svg>
