<svg xmlns="http://www.w3.org/2000/svg" overflow="visible" viewBox="0 0 48 48" width="48" height="48">
  <rect x="0" y="0" width="48" height="48" fill="#0a0804"/>
  <rect x="0" y="0" width="48" height="48" fill="#120e06" opacity="0.8"/>
  <polygon points="4,3 8,1 10,5 6,7" fill="#1a1206" opacity="0.5"/>
  <polygon points="16,2 20,0 22,4 18,6" fill="#1a1206" opacity="0.45"/>
  <polygon points="30,4 34,2 36,6 32,8" fill="#1a1206" opacity="0.5"/>
  <polygon points="40,2 44,0 46,4 42,6" fill="#1a1206" opacity="0.4"/>
  <polygon points="6,16 10,14 12,18 8,20" fill="#1a1206" opacity="0.4"/>
  <polygon points="20,18 24,16 26,20 22,22" fill="#1a1206" opacity="0.45"/>
  <polygon points="34,14 38,12 40,16 36,18" fill="#1a1206" opacity="0.4"/>
  <polygon points="2,30 6,28 8,32 4,34" fill="#1a1206" opacity="0.45"/>
  <polygon points="16,28 20,26 22,30 18,32" fill="#1a1206" opacity="0.4"/>
  <polygon points="30,32 34,30 36,34 32,36" fill="#1a1206" opacity="0.5"/>
  <polygon points="44,30 48,28 48,32 44,34" fill="#1a1206" opacity="0.4"/>
  <polygon points="8,42 12,40 14,44 10,46" fill="#1a1206" opacity="0.4"/>
  <polygon points="24,40 28,38 30,42 26,44" fill="#1a1206" opacity="0.45"/>
  <polygon points="38,42 42,40 44,44 40,46" fill="#1a1206" opacity="0.4"/>
  <line x1="2" y1="10" x2="6" y2="8" stroke="#3a2a12" stroke-width="0.3" opacity="0.2"/>
  <line x1="20" y1="8" x2="24" y2="6" stroke="#3a2a12" stroke-width="0.3" opacity="0.2"/>
  <line x1="38" y1="10" x2="42" y2="8" stroke="#3a2a12" stroke-width="0.3" opacity="0.2"/>
  <line x1="12" y1="24" x2="16" y2="22" stroke="#3a2a12" stroke-width="0.3" opacity="0.2"/>
  <line x1="30" y1="24" x2="34" y2="22" stroke="#3a2a12" stroke-width="0.3" opacity="0.2"/>
  <line x1="4" y1="38" x2="8" y2="36" stroke="#3a2a12" stroke-width="0.3" opacity="0.2"/>
  <line x1="34" y1="38" x2="38" y2="36" stroke="#3a2a12" stroke-width="0.3" opacity="0.2"/>
</svg>
