<svg xmlns="http://www.w3.org/2000/svg" overflow="visible" viewBox="0 0 48 48" width="48" height="48">
  <defs><filter id="g" filterUnits="userSpaceOnUse" x="-500" y="-500" width="2000" height="2000"><feGaussianBlur stdDeviation="2" result="b1"/><feGaussianBlur stdDeviation="5" result="b2"/><feMerge><feMergeNode in="b2"/><feMergeNode in="b1"/><feMergeNode in="SourceGraphic"/></feMerge></filter></defs>
  <rect x="0" y="0" width="48" height="48" fill="#0a0a1a"/>
  <rect x="0" y="0" width="48" height="48" fill="#0e0e28" opacity="0.6"/>
  <path d="M0,8 L36,8 L36,4 Q36,0 40,0 L48,0 Z" fill="none"/>
  <path d="M0,8 L36,8 L36,4 Q36,0 40,0 L48,0" fill="none" stroke="#ff00ff" stroke-width="3" stroke-linecap="round" filter="url(#g)"/>
  <path d="M0,8 L36,8 L36,4 Q36,0 40,0 L48,0" fill="none" stroke="#ffffff" stroke-width="0.5" opacity="0.3"/>
  <line x1="36" y1="8" x2="36" y2="10" stroke="#ff00ff" stroke-width="2" filter="url(#g)"/>
  <line x1="36" y1="8" x2="36" y2="10" stroke="#ffffff" stroke-width="0.4" opacity="0.3"/>
  <rect x="0" y="8" width="48" height="40" fill="#1a0a2e" opacity="0.4"/>
  <path d="M4,14 L44,14 M4,20 L44,20 M4,26 L44,26 M4,32 L44,32 M4,38 L44,38 M4,44 L44,44" stroke="#ff00ff" stroke-width="0.3" opacity="0.08"/>
</svg>
