<svg xmlns="http://www.w3.org/2000/svg" overflow="visible" viewBox="0 0 48 48" width="48" height="48">
  <rect x="0" y="0" width="48" height="48" fill="#08040e"/>
  <rect x="0" y="0" width="48" height="48" fill="#0e0818" opacity="0.8"/>
  <polygon points="6,4 14,0 18,8 10,12" fill="#1a0a2e" opacity="0.4"/>
  <polygon points="8,24 18,20 22,28 12,32" fill="#1a0a2e" opacity="0.3"/>
  <polygon points="24,6 34,2 38,10 28,14" fill="#1a0a2e" opacity="0.35"/>
  <polygon points="30,28 40,24 44,32 34,36" fill="#1a0a2e" opacity="0.4"/>
  <polygon points="2,44 12,40 16,48 6,48" fill="#1a0a2e" opacity="0.35"/>
  <polygon points="20,44 30,40 34,48 24,48" fill="#1a0a2e" opacity="0.3"/>
  <polygon points="36,42 46,38 48,46 40,48" fill="#1a0a2e" opacity="0.35"/>
  <polygon points="12,42 2,38 0,46 8,48" fill="#1a0a2e" opacity="0.35"/>
  <polygon points="42,8 48,4 48,12" fill="#1a0a2e" opacity="0.3"/>
  <polygon points="0,4 6,4 10,8 0,12" fill="#1a0a2e" opacity="0.3"/>
  <line x1="6" y1="16" x2="14" y2="20" stroke="#5522aa" stroke-width="0.3" opacity="0.2"/>
  <line x1="28" y1="16" x2="36" y2="20" stroke="#5522aa" stroke-width="0.3" opacity="0.2"/>
  <line x1="16" y1="28" x2="24" y2="32" stroke="#5522aa" stroke-width="0.3" opacity="0.2"/>
  <line x1="38" y1="28" x2="46" y2="32" stroke="#5522aa" stroke-width="0.3" opacity="0.2"/>
  <line x1="4" y1="36" x2="12" y2="40" stroke="#5522aa" stroke-width="0.3" opacity="0.2"/>
  <line x1="30" y1="38" x2="38" y2="42" stroke="#5522aa" stroke-width="0.3" opacity="0.2"/>
</svg>
