<svg xmlns="http://www.w3.org/2000/svg" overflow="visible" viewBox="0 0 48 48" width="48" height="48">
  <rect x="0" y="0" width="48" height="48" fill="#0a0a10"/>
  <rect x="0" y="0" width="48" height="48" fill="#0e0e16" opacity="0.7"/>
  <polygon points="2,2 16,0 18,14 4,16" fill="#12121c" stroke="#2a3a48" stroke-width="0.5" opacity="0.5"/>
  <polygon points="22,2 36,0 38,14 24,16" fill="#10101a" stroke="#2a3a48" stroke-width="0.5" opacity="0.4"/>
  <polygon points="40,4 48,2 48,16 42,18" fill="#12121c" stroke="#2a3a48" stroke-width="0.5" opacity="0.45"/>
  <polygon points="0,20 14,18 16,32 2,34" fill="#10101a" stroke="#2a3a48" stroke-width="0.5" opacity="0.4"/>
  <polygon points="20,20 34,18 36,32 22,34" fill="#12121c" stroke="#2a3a48" stroke-width="0.5" opacity="0.5"/>
  <polygon points="38,20 48,18 48,32 40,34" fill="#10101a" stroke="#2a3a48" stroke-width="0.5" opacity="0.4"/>
  <polygon points="2,34 16,32 18,46 4,48" fill="#12121c" stroke="#2a3a48" stroke-width="0.5" opacity="0.45"/>
  <polygon points="22,34 36,32 38,46 24,48" fill="#10101a" stroke="#2a3a48" stroke-width="0.5" opacity="0.4"/>
  <polygon points="40,34 48,32 48,46 42,48" fill="#12121c" stroke="#2a3a48" stroke-width="0.5" opacity="0.45"/>
  <line x1="0" y1="18" x2="48" y2="18" stroke="#1a2838" stroke-width="0.6" opacity="0.3"/>
  <line x1="0" y1="34" x2="48" y2="34" stroke="#1a2838" stroke-width="0.6" opacity="0.3"/>
  <line x1="18" y1="0" x2="18" y2="18" stroke="#1a2838" stroke-width="0.5" opacity="0.25"/>
  <line x1="38" y1="0" x2="38" y2="18" stroke="#1a2838" stroke-width="0.5" opacity="0.25"/>
  <line x1="20" y1="18" x2="20" y2="34" stroke="#1a2838" stroke-width="0.4" opacity="0.2"/>
  <line x1="40" y1="18" x2="40" y2="34" stroke="#1a2838" stroke-width="0.4" opacity="0.2"/>
  <line x1="0" y1="34" x2="4" y2="48" stroke="#1a2838" stroke-width="0.4" opacity="0.15"/>
  <line x1="18" y1="34" x2="18" y2="48" stroke="#1a2838" stroke-width="0.4" opacity="0.15"/>
  <line x1="38" y1="34" x2="38" y2="48" stroke="#1a2838" stroke-width="0.4" opacity="0.15"/>
  <path d="M4,4 L8,8" stroke="#3a4a58" stroke-width="0.3" opacity="0.12"/>
  <path d="M28,6 L32,10" stroke="#3a4a58" stroke-width="0.3" opacity="0.12"/>
  <path d="M8,22 L12,26" stroke="#3a4a58" stroke-width="0.3" opacity="0.12"/>
  <path d="M28,24 L32,28" stroke="#3a4a58" stroke-width="0.3" opacity="0.12"/>
</svg>
