<svg xmlns="http://www.w3.org/2000/svg" overflow="visible" viewBox="0 0 48 48" width="48" height="48">
  <defs><filter id="g" filterUnits="userSpaceOnUse" x="-80" y="-80" width="160" height="160"><feGaussianBlur stdDeviation="1" result="b"/><feMerge><feMergeNode in="b"/><feMergeNode in="SourceGraphic"/></feMerge></filter></defs>
  <rect x="0" y="0" width="48" height="48" fill="#08080c"/>
  <rect x="0" y="0" width="48" height="48" fill="#0c0c12" opacity="0.8"/>
  <rect x="2" y="2" width="20" height="20" fill="#12121a" stroke="#3a4a5a" stroke-width="0.5" opacity="0.3"/>
  <rect x="26" y="2" width="20" height="20" fill="#0e0e16" stroke="#3a4a5a" stroke-width="0.5" opacity="0.3"/>
  <rect x="2" y="26" width="20" height="20" fill="#0e0e16" stroke="#3a4a5a" stroke-width="0.5" opacity="0.3"/>
  <rect x="26" y="26" width="20" height="20" fill="#12121a" stroke="#3a4a5a" stroke-width="0.5" opacity="0.3"/>
  <line x1="22" y1="12" x2="26" y2="12" stroke="#2a3a4a" stroke-width="0.8" opacity="0.3"/>
  <line x1="12" y1="22" x2="12" y2="26" stroke="#2a3a4a" stroke-width="0.8" opacity="0.3"/>
  <line x1="36" y1="22" x2="36" y2="26" stroke="#2a3a4a" stroke-width="0.8" opacity="0.3"/>
  <line x1="22" y1="36" x2="26" y2="36" stroke="#2a3a4a" stroke-width="0.8" opacity="0.3"/>
  <circle cx="8" cy="8" r="0.6" fill="#4a5a6a" opacity="0.15"/>
  <circle cx="34" cy="8" r="0.5" fill="#4a5a6a" opacity="0.12"/>
  <circle cx="8" cy="34" r="0.5" fill="#4a5a6a" opacity="0.12"/>
  <circle cx="34" cy="34" r="0.6" fill="#4a5a6a" opacity="0.15"/>
  <line x1="4" y1="4" x2="8" y2="8" stroke="#4a5a6a" stroke-width="0.2" opacity="0.1"/>
  <line x1="28" y1="4" x2="32" y2="8" stroke="#4a5a6a" stroke-width="0.2" opacity="0.1"/>
  <line x1="4" y1="28" x2="8" y2="32" stroke="#4a5a6a" stroke-width="0.2" opacity="0.1"/>
  <line x1="28" y1="28" x2="32" y2="32" stroke="#4a5a6a" stroke-width="0.2" opacity="0.1"/>
</svg>
