<svg xmlns="http://www.w3.org/2000/svg" overflow="visible" viewBox="0 0 48 48" width="48" height="48">
  <defs><filter id="g" filterUnits="userSpaceOnUse" x="-500" y="-500" width="2000" height="2000"><feGaussianBlur stdDeviation="1" result="b"/><feMerge><feMergeNode in="b"/><feMergeNode in="SourceGraphic"/></feMerge></filter></defs>
  <rect x="0" y="0" width="48" height="48" fill="#08080a"/>
  <rect x="0" y="0" width="48" height="48" fill="#0c0c10" opacity="0.8"/>
  <rect x="4" y="3" width="10" height="8" fill="#141418" stroke="#3a3a4a" stroke-width="0.4" opacity="0.3"/>
  <rect x="18" y="2" width="8" height="10" fill="#121216" stroke="#3a3a4a" stroke-width="0.4" opacity="0.25"/>
  <rect x="30" y="3" width="14" height="8" fill="#141418" stroke="#3a3a4a" stroke-width="0.4" opacity="0.3"/>
  <rect x="2" y="15" width="14" height="8" fill="#121216" stroke="#3a3a4a" stroke-width="0.4" opacity="0.25"/>
  <rect x="20" y="14" width="10" height="8" fill="#141418" stroke="#3a3a4a" stroke-width="0.4" opacity="0.3"/>
  <rect x="34" y="15" width="12" height="8" fill="#121216" stroke="#3a3a4a" stroke-width="0.4" opacity="0.25"/>
  <rect x="4" y="27" width="10" height="8" fill="#141418" stroke="#3a3a4a" stroke-width="0.4" opacity="0.3"/>
  <rect x="18" y="26" width="8" height="10" fill="#121216" stroke="#3a3a4a" stroke-width="0.4" opacity="0.25"/>
  <rect x="30" y="27" width="14" height="8" fill="#141418" stroke="#3a3a4a" stroke-width="0.4" opacity="0.3"/>
  <rect x="2" y="39" width="14" height="8" fill="#121216" stroke="#3a3a4a" stroke-width="0.4" opacity="0.25"/>
  <rect x="20" y="38" width="10" height="8" fill="#141418" stroke="#3a3a4a" stroke-width="0.4" opacity="0.3"/>
  <rect x="34" y="39" width="12" height="8" fill="#121216" stroke="#3a3a4a" stroke-width="0.4" opacity="0.25"/>
  <circle cx="9" cy="7" r="0.5" fill="#4a4a5a" opacity="0.15"/>
  <circle cx="34" cy="7" r="0.4" fill="#4a4a5a" opacity="0.12"/>
  <circle cx="25" cy="18" r="0.5" fill="#4a4a5a" opacity="0.15"/>
  <circle cx="9" cy="31" r="0.4" fill="#4a4a5a" opacity="0.12"/>
  <circle cx="25" cy="42" r="0.5" fill="#4a4a5a" opacity="0.15"/>
  <line x1="4" y1="12" x2="14" y2="12" stroke="#3a3a4a" stroke-width="0.3" opacity="0.1"/>
  <line x1="30" y1="12" x2="44" y2="12" stroke="#3a3a4a" stroke-width="0.3" opacity="0.1"/>
  <line x1="4" y1="24" x2="14" y2="24" stroke="#3a3a4a" stroke-width="0.3" opacity="0.1"/>
  <line x1="20" y1="24" x2="30" y2="24" stroke="#3a3a4a" stroke-width="0.3" opacity="0.1"/>
  <line x1="34" y1="24" x2="46" y2="24" stroke="#3a3a4a" stroke-width="0.3" opacity="0.1"/>
</svg>
