<svg xmlns="http://www.w3.org/2000/svg" overflow="visible" viewBox="0 0 48 48" width="48" height="48">
  <rect x="0" y="0" width="48" height="48" fill="#0a0a0e"/>
  <rect x="0" y="0" width="48" height="48" fill="#0c0c12" opacity="0.7"/>
  <polygon points="2,2 18,0 20,14 4,16" fill="#101018" stroke="#3a4a58" stroke-width="0.4" opacity="0.4"/>
  <polygon points="22,2 38,0 40,14 24,16" fill="#0e0e16" stroke="#3a4a58" stroke-width="0.4" opacity="0.3"/>
  <polygon points="40,2 48,0 48,14 42,16" fill="#101018" stroke="#3a4a58" stroke-width="0.4" opacity="0.35"/>
  <polygon points="0,18 16,16 18,30 2,32" fill="#0e0e16" stroke="#3a4a58" stroke-width="0.4" opacity="0.3"/>
  <polygon points="20,18 36,16 38,30 22,32" fill="#101018" stroke="#3a4a58" stroke-width="0.4" opacity="0.4"/>
  <polygon points="38,18 48,16 48,30 40,32" fill="#0e0e16" stroke="#3a4a58" stroke-width="0.4" opacity="0.3"/>
  <polygon points="2,34 18,32 20,46 4,48" fill="#101018" stroke="#3a4a58" stroke-width="0.4" opacity="0.35"/>
  <polygon points="22,34 38,32 40,46 24,48" fill="#0e0e16" stroke="#3a4a58" stroke-width="0.4" opacity="0.3"/>
  <polygon points="40,34 48,32 48,46 42,48" fill="#101018" stroke="#3a4a58" stroke-width="0.4" opacity="0.35"/>
  <line x1="0" y1="16" x2="48" y2="16" stroke="#2a3848" stroke-width="0.6" opacity="0.3"/>
  <line x1="0" y1="32" x2="48" y2="32" stroke="#2a3848" stroke-width="0.6" opacity="0.3"/>
  <line x1="20" y1="0" x2="20" y2="16" stroke="#2a3848" stroke-width="0.4" opacity="0.2"/>
  <line x1="40" y1="0" x2="40" y2="16" stroke="#2a3848" stroke-width="0.4" opacity="0.2"/>
  <line x1="18" y1="16" x2="18" y2="32" stroke="#2a3848" stroke-width="0.4" opacity="0.2"/>
  <line x1="38" y1="16" x2="38" y2="32" stroke="#2a3848" stroke-width="0.4" opacity="0.2"/>
  <line x1="0" y1="32" x2="2" y2="48" stroke="#2a3848" stroke-width="0.3" opacity="0.15"/>
  <line x1="20" y1="32" x2="20" y2="48" stroke="#2a3848" stroke-width="0.3" opacity="0.15"/>
  <line x1="40" y1="32" x2="40" y2="48" stroke="#2a3848" stroke-width="0.3" opacity="0.15"/>
  <path d="M6,6 L10,10" stroke="#4a5a68" stroke-width="0.2" opacity="0.1"/>
  <path d="M28,6 L32,10" stroke="#4a5a68" stroke-width="0.2" opacity="0.1"/>
  <path d="M8,22 L12,26" stroke="#4a5a68" stroke-width="0.2" opacity="0.1"/>
  <path d="M28,22 L32,26" stroke="#4a5a68" stroke-width="0.2" opacity="0.1"/>
</svg>
