<svg xmlns="http://www.w3.org/2000/svg" overflow="visible" viewBox="0 0 48 48" width="48" height="48">
  <defs>
    <filter id="glow" x="-50%" y="-50%" width="200%" height="200%"><feGaussianBlur stdDeviation="1.5" result="blur"/><feMerge><feMergeNode in="blur"/><feMergeNode in="SourceGraphic"/></feMerge></filter>
  </defs>
  <ellipse cx="24" cy="10" rx="14" ry="4" fill="#3a2a1a" stroke="#8a6a3a" stroke-width="1" filter="url(#glow)"/>
  <rect x="10" y="10" width="28" height="28" rx="2" fill="#3a2a1a"/>
  <path d="M10,14 L10,36 Q10,38 24,38 Q38,38 38,36 L38,14" fill="#3a2a1a" stroke="#8a6a3a" stroke-width="1" filter="url(#glow)"/>
  <ellipse cx="24" cy="38" rx="14" ry="4" fill="#3a2a1a" stroke="#8a6a3a" stroke-width="1" filter="url(#glow)"/>
  <rect x="10" y="10" width="28" height="28" fill="none" stroke="#5a3a1a" stroke-width="0.5"/>
  <line x1="12" y1="16" x2="12" y2="34" stroke="#5a3a1a" stroke-width="1"/>
  <line x1="36" y1="16" x2="36" y2="34" stroke="#5a3a1a" stroke-width="1"/>
  <line x1="12" y1="22" x2="36" y2="22" stroke="#6a4a2a" stroke-width="0.5"/>
  <line x1="12" y1="28" x2="36" y2="28" stroke="#6a4a2a" stroke-width="0.5"/>
  <ellipse cx="24" cy="10" rx="10" ry="2" fill="#4a2a1a44"/>
  <ellipse cx="24" cy="38" rx="10" ry="2" fill="#4a2a1a44"/>
  <circle cx="24" cy="24" r="2" fill="#5a3a1a44" stroke="#8a6a3a" stroke-width="0.5"/>
</svg>
