<svg xmlns="http://www.w3.org/2000/svg" overflow="visible" viewBox="0 0 48 48" width="48" height="48">
  <defs>
    <filter id="glow" x="-50%" y="-50%" width="200%" height="200%"><feGaussianBlur stdDeviation="1.5" result="blur"/><feMerge><feMergeNode in="blur"/><feMergeNode in="SourceGraphic"/></feMerge></filter>
  </defs>
  <ellipse cx="24" cy="40" rx="14" ry="3" fill="#1a1a2e33" stroke="#444" stroke-width="0.3"/>
  <path d="M10,38 L14,26 L16,30 L18,24 L20,28 L22,22 L24,28 L26,20 L28,26 L30,18 L32,24 L34,20 L36,28 L38,36 Z" fill="#ddd" stroke="#aaa" stroke-width="0.3" opacity="0.2"/>
  <path d="M14,34 L16,30 L18,33 L20,28 L22,32 L24,26" fill="none" stroke="#ccc" stroke-width="1.5" filter="url(#glow)"/>
  <path d="M26,28 L28,24 L30,28 L32,22 L34,26 L36,30" fill="none" stroke="#ccc" stroke-width="1" opacity="0.8"/>
  <circle cx="16" cy="30" r="1.5" fill="#ddd" stroke="#aaa" stroke-width="0.5"/>
  <circle cx="22" cy="26" r="1.2" fill="#ccc" stroke="#aaa" stroke-width="0.5"/>
  <circle cx="28" cy="26" r="1" fill="#bbb" stroke="#999" stroke-width="0.5"/>
  <circle cx="34" cy="24" r="1.3" fill="#ccc" stroke="#aaa" stroke-width="0.5"/>
  <circle cx="20" cy="34" r="0.8" fill="#ddd"/>
  <circle cx="30" cy="30" r="0.8" fill="#ddd"/>
  <line x1="14" y1="38" x2="34" y2="38" stroke="#555" stroke-width="0.5"/>
</svg>
