<svg xmlns="http://www.w3.org/2000/svg" viewBox="0 0 48 48" width="48" height="48">
  <defs>
    <filter id="glow"><feGaussianBlur stdDeviation="2" result="blur"/><feMerge><feMergeNode in="blur"/><feMergeNode in="SourceGraphic"/></feMerge></filter>
    <filter id="glow-strong"><feGaussianBlur stdDeviation="4" result="blur"/><feMerge><feMergeNode in="blur"/><feMergeNode in="SourceGraphic"/></feMerge></filter>
  </defs>
  <ellipse cx="24" cy="40" rx="12" ry="3" fill="#ff440011" stroke="#ff4400" stroke-width="0.3" opacity="0.2"/>
  <path d="M16,36 L14,32 L16,34 L18,30 L16,32 L18,28 L16,30 L18,26 L20,28 L22,24 L24,28 L26,22 L24,26 L22,20 L24,24 L26,18 L28,22 L30,26 L28,24 L30,28 L32,24 L30,26 L32,30 L34,26 L32,30 L34,34 L32,32 L30,36 Z" fill="none" stroke="#ff6600" stroke-width="1.5" filter="url(#glow)"/>
  <path d="M16,34 L18,30 L20,28 L22,24 L24,28 L26,22 L28,26 L30,28" fill="none" stroke="#ffcc00" stroke-width="1.5" filter="url(#glow-strong)">
    <animate attributeName="opacity" values="0.8;0.4;0.8" dur="1s" repeatCount="indefinite"/>
  </path>
  <circle cx="20" cy="30" r="2" fill="#ff6600" opacity="0.6" filter="url(#glow)">
    <animate attributeName="r" values="2;2.5;2" dur="0.8s" repeatCount="indefinite"/>
  </circle>
  <circle cx="26" cy="26" r="2.5" fill="#ff8800" opacity="0.5" filter="url(#glow-strong)">
    <animate attributeName="r" values="2.5;3;2.5" dur="1s" repeatCount="indefinite"/>
  </circle>
  <circle cx="24" cy="20" r="1.5" fill="#ffcc00" opacity="0.7" filter="url(#glow-strong)">
    <animate attributeName="r" values="1.5;2;1.5" dur="0.6s" repeatCount="indefinite"/>
  </circle>
  <circle cx="30" cy="30" r="1.5" fill="#ff4400" opacity="0.5" filter="url(#glow)">
    <animate attributeName="r" values="1.5;2;1.5" dur="0.9s" repeatCount="indefinite"/>
  </circle>
  <line x1="18" y1="36" x2="20" y2="32" stroke="#ff6600" stroke-width="1" opacity="0.3"/>
  <line x1="28" y1="36" x2="26" y2="32" stroke="#ff6600" stroke-width="1" opacity="0.3"/>
</svg>
