<svg xmlns="http://www.w3.org/2000/svg" viewBox="0 0 48 48" width="48" height="48">
  <defs>
    <filter id="glow"><feGaussianBlur stdDeviation="1.5" result="blur"/><feMerge><feMergeNode in="blur"/><feMergeNode in="SourceGraphic"/></feMerge></filter>
  </defs>
  <ellipse cx="24" cy="40" rx="8" ry="2" fill="#1a1a2e33" stroke="#444" stroke-width="0.3"/>
  <rect x="18" y="8" width="12" height="4" rx="1" fill="#4a2a1a" stroke="#6a4a2a" stroke-width="0.5"/>
  <rect x="20" y="4" width="8" height="6" rx="1" fill="#6a3a1a" stroke="#8a5a3a" stroke-width="0.5"/>
  <rect x="22" y="12" width="4" height="16" fill="#5a3a1a" stroke="#8a5a3a" stroke-width="0.5"/>
  <polygon points="10,36 18,12 20,14" fill="none" stroke="#6a4a2a" stroke-width="1.5" filter="url(#glow)"/>
  <polygon points="38,36 30,12 28,14" fill="none" stroke="#6a4a2a" stroke-width="1.5" filter="url(#glow)"/>
  <polygon points="10,36 18,12 20,14" fill="#6a4a2a22" stroke="none"/>
  <polygon points="38,36 30,12 28,14" fill="#6a4a2a22" stroke="none"/>
  <circle cx="24" cy="12" r="1" fill="#8a5a3a" opacity="0.5"/>
  <path d="M12,34 L16,20 L18,22" fill="none" stroke="#5a3a1a" stroke-width="0.5" opacity="0.3"/>
  <path d="M36,34 L32,20 L30,22" fill="none" stroke="#5a3a1a" stroke-width="0.5" opacity="0.3"/>
  <line x1="18" y1="28" x2="30" y2="28" stroke="#6a4a2a" stroke-width="0.5" opacity="0.3"/>
  <line x1="18" y1="32" x2="30" y2="32" stroke="#6a4a2a" stroke-width="0.5" opacity="0.3"/>
</svg>
