<svg xmlns="http://www.w3.org/2000/svg" overflow="visible" viewBox="0 0 48 48" width="48" height="48">
  <defs>
    <filter id="glow" filterUnits="userSpaceOnUse" x="-500" y="-500" width="2000" height="2000"><feGaussianBlur stdDeviation="1.5" result="blur"/><feMerge><feMergeNode in="blur"/><feMergeNode in="SourceGraphic"/></feMerge></filter>
  </defs>
  <ellipse cx="24" cy="40" rx="14" ry="3" fill="#1a1a2e44" stroke="#444" stroke-width="0.3"/>
  <path d="M16,36 Q14,26 18,20 Q20,16 24,16 Q28,16 30,20 Q34,26 32,36 Z" fill="#2a1a0a" stroke="#6a4a2a" stroke-width="1" filter="url(#glow)"/>
  <ellipse cx="24" cy="18" rx="6" ry="2" fill="#3a2a1a" stroke="#6a4a2a" stroke-width="0.5"/>
  <path d="M22,20 L22,36" stroke="#5a3a1a" stroke-width="0.5" opacity="0.4"/>
  <path d="M26,20 L26,36" stroke="#5a3a1a" stroke-width="0.5" opacity="0.4"/>
  <ellipse cx="24" cy="20" rx="5" ry="3" fill="none" stroke="#5a3a1a" stroke-width="0.3" opacity="0.3"/>
  <circle cx="20" cy="22" r="1.2" fill="#6a4a2a44"/>
  <circle cx="28" cy="24" r="0.8" fill="#6a4a2a44"/>
  <circle cx="24" cy="26" r="1" fill="#6a4a2a44"/>
  <path d="M20,34 Q18,36 16,38" fill="none" stroke="#5a3a1a" stroke-width="1" opacity="0.4"/>
  <path d="M28,34 Q30,36 32,38" fill="none" stroke="#5a3a1a" stroke-width="1" opacity="0.4"/>
  <ellipse cx="24" cy="36" rx="8" ry="1" fill="#3a2a1a44" stroke="#5a3a1a" stroke-width="0.3" opacity="0.3"/>
</svg>
