<svg xmlns="http://www.w3.org/2000/svg" overflow="visible" viewBox="0 0 48 48" width="48" height="48">
  <defs>
    <filter id="glow" x="-50%" y="-50%" width="200%" height="200%"><feGaussianBlur stdDeviation="2" result="blur"/><feMerge><feMergeNode in="blur"/><feMergeNode in="SourceGraphic"/></feMerge></filter>
  </defs>
  <rect x="21" y="30" width="6" height="12" rx="2" fill="#4a2a1a" stroke="#6a3a2a" stroke-width="0.5"/>
  <path d="M24,28 Q24,26 22,24 Q18,20 16,16 Q14,12 18,10 Q20,8 24,10 Q28,6 32,10 Q36,12 34,16 Q32,20 28,24 Q26,26 26,28 Z" fill="#00aa4444" stroke="#00ff66" stroke-width="1" filter="url(#glow)">
    <animate attributeName="fill" values="#00aa4444;#00cc5544;#00aa4444" dur="3s" repeatCount="indefinite"/>
  </path>
  <path d="M24,28 Q24,24 20,22 Q16,18 14,14" fill="none" stroke="#00ff66" stroke-width="0.5" opacity="0.3">
    <animate attributeName="opacity" values="0.3;0.6;0.3" dur="2s" repeatCount="indefinite"/>
  </path>
  <path d="M24,28 Q24,24 28,22 Q32,18 34,14" fill="none" stroke="#00ff66" stroke-width="0.5" opacity="0.3">
    <animate attributeName="opacity" values="0.3;0.6;0.3" dur="2.5s" repeatCount="indefinite"/>
  </path>
  <ellipse cx="24" cy="36" rx="4" ry="2" fill="#00aa4411" stroke="#00ff66" stroke-width="0.3" opacity="0.2"/>
  <circle cx="18" cy="14" r="1.5" fill="#00ff66" opacity="0.4">
    <animate attributeName="opacity" values="0.4;0.8;0.4" dur="1.5s" repeatCount="indefinite"/>
  </circle>
  <circle cx="30" cy="16" r="1" fill="#00ff66" opacity="0.3">
    <animate attributeName="opacity" values="0.3;0.7;0.3" dur="1.8s" repeatCount="indefinite"/>
  </circle>
</svg>
