<svg xmlns="http://www.w3.org/2000/svg" viewBox="0 0 48 48" width="48" height="48">
  <defs>
    <filter id="glow"><feGaussianBlur stdDeviation="2" result="blur"/><feMerge><feMergeNode in="blur"/><feMergeNode in="SourceGraphic"/></feMerge></filter>
  </defs>
  <ellipse cx="24" cy="38" rx="16" ry="4" fill="#1a1a2e33" stroke="#444" stroke-width="0.3"/>
  <path d="M10,32 Q8,28 12,24 L20,20 Q22,18 24,20 L28,20 Q30,18 32,20 L40,24 Q44,28 42,32 Z" fill="#333" stroke="#666" stroke-width="1" filter="url(#glow)"/>
  <path d="M12,26 L20,22 L24,24 L28,22 L36,26" fill="none" stroke="#555" stroke-width="0.5"/>
  <path d="M8,28 L12,24 L16,26" fill="none" stroke="#ff4400" stroke-width="2" filter="url(#glow)">
    <animate attributeName="d" values="M8,28 L12,24 L16,26;M6,30 L12,24 L18,28;M8,28 L12,24 L16,26" dur="3s" repeatCount="indefinite"/>
  </path>
  <path d="M40,28 L36,24 L32,26" fill="none" stroke="#ff4400" stroke-width="2" filter="url(#glow)">
    <animate attributeName="d" values="M40,28 L36,24 L32,26;M42,30 L36,24 L30,28;M40,28 L36,24 L32,26" dur="3s" begin="1.5s" repeatCount="indefinite"/>
  </path>
  <circle cx="18" cy="28" r="1.5" fill="#ff4400" opacity="0.6" filter="url(#glow)">
    <animate attributeName="opacity" values="0.6;0.2;0.6" dur="3s" repeatCount="indefinite"/>
  </circle>
  <circle cx="30" cy="28" r="1.5" fill="#ff4400" opacity="0.6" filter="url(#glow)">
    <animate attributeName="opacity" values="0.6;0.2;0.6" dur="3s" begin="1.5s" repeatCount="indefinite"/>
  </circle>
  <circle cx="24" cy="22" r="1" fill="#ff6600" opacity="0.4"/>
  <line x1="14" y1="26" x2="14" y2="22" stroke="#888" stroke-width="1"/>
  <line x1="34" y1="26" x2="34" y2="22" stroke="#888" stroke-width="1"/>
</svg>
