<svg xmlns="http://www.w3.org/2000/svg" overflow="visible" viewBox="-30 -35 60 70" width="240" height="240">
  <defs>
    <filter id="glow" filterUnits="userSpaceOnUse" x="-80" y="-80" width="160" height="160">
      <feGaussianBlur stdDeviation="3" result="b1"/><feGaussianBlur stdDeviation="6" result="b2"/><feMerge><feMergeNode in="b2"/><feMergeNode in="b1"/><feMergeNode in="SourceGraphic"/></feMerge>
    </filter>
  </defs>
  <g>
    <animateTransform attributeName="transform" type="translate" values="0,0;0,-4;0,0" dur="1.3s" repeatCount="indefinite"/>
    <g>
      <animateTransform attributeName="transform" type="scale" values="1;1.08;1" dur="0.6s" repeatCount="indefinite"/>
      <path d="M0,6 Q-12,-14 -18,-4 Q-22,4 -16,10 Q-10,16 0,22 Q10,16 16,10 Q22,4 18,-4 Q12,-14 0,6Z" fill="none" stroke="#ff0044" stroke-width="2" filter="url(#glow)"/>
      <path d="M0,6 Q-8,-8 -12,-2 Q-14,4 -10,8 Q-6,12 0,16 Q6,12 10,8 Q14,4 12,-2 Q8,-8 0,6Z" fill="#ff0044" opacity="0.15">
        <animate attributeName="opacity" values="0.15;0.35;0.15" dur="0.6s" repeatCount="indefinite"/>
      </path>
      <circle cx="-8" cy="-2" r="1.5" fill="#ffffff" opacity="0.4">
        <animate attributeName="opacity" values="0.4;0.1;0.4" dur="0.8s" repeatCount="indefinite"/>
      </circle>
      <circle cx="8" cy="-2" r="1" fill="#ffffff" opacity="0.3">
        <animate attributeName="opacity" values="0.3;0.1;0.3" dur="0.8s" repeatCount="indefinite"/>
      </circle>
    </g>
  </g>
</svg>
