<svg xmlns="http://www.w3.org/2000/svg" overflow="visible" viewBox="-30 -40 60 80" width="240" height="240">
  <defs>
    <filter id="glowPink" filterUnits="userSpaceOnUse" x="-80" y="-80" width="160" height="160">
      <feGaussianBlur stdDeviation="3" result="b1"/><feGaussianBlur stdDeviation="6" result="b2"/><feMerge><feMergeNode in="b2"/><feMergeNode in="b1"/><feMergeNode in="SourceGraphic"/></feMerge>
    </filter>
    <filter id="glowCyan" filterUnits="userSpaceOnUse" x="-80" y="-80" width="160" height="160">
      <feGaussianBlur stdDeviation="3" result="b1"/><feGaussianBlur stdDeviation="6" result="b2"/><feMerge><feMergeNode in="b2"/><feMergeNode in="b1"/><feMergeNode in="SourceGraphic"/></feMerge>
    </filter>
    <filter id="glowPurple" filterUnits="userSpaceOnUse" x="-80" y="-80" width="160" height="160">
      <feGaussianBlur stdDeviation="3" result="b1"/><feGaussianBlur stdDeviation="6" result="b2"/><feMerge><feMergeNode in="b2"/><feMergeNode in="b1"/><feMergeNode in="SourceGraphic"/></feMerge>
    </filter>
  </defs>
  <g>
    <animateTransform attributeName="transform" type="translate" values="0,0;0,-2;0,0" dur="2.5s" repeatCount="indefinite"/>
    <ellipse cx="0" cy="26" rx="13" ry="3" fill="rgba(0,0,0,0.4)">
      <animate attributeName="rx" values="13;12;13" dur="2.5s" repeatCount="indefinite"/>
    </ellipse>
    <rect x="-5" y="14" width="4" height="12" rx="2" fill="#9900ff" filter="url(#glowPurple)"/>
    <rect x="1" y="14" width="4" height="12" rx="2" fill="#9900ff" filter="url(#glowPurple)"/>
    <rect x="-7" y="1" width="14" height="14" rx="4" fill="none" stroke="#9900ff" stroke-width="2" filter="url(#glowPurple)"/>
    <rect x="-5" y="4" width="10" height="6" rx="2" fill="#9900ff" opacity="0.15">
      <animate attributeName="opacity" values="0.15;0.3;0.15" dur="2.5s" repeatCount="indefinite"/>
    </rect>
    <rect x="-12" y="3" width="5" height="4" rx="2" fill="#9900ff" filter="url(#glowPurple)"/>
    <rect x="7" y="3" width="5" height="4" rx="2" fill="#9900ff" filter="url(#glowPurple)"/>
    <circle cx="0" cy="-9" r="8" fill="none" stroke="#ff00ff" stroke-width="2" filter="url(#glowPink)"/>
    <rect x="-5" y="-12" width="10" height="4" rx="2" fill="#ff00ff" opacity="0.7" filter="url(#glowPink)">
      <animate attributeName="opacity" values="0.7;0.4;0.7" dur="2.5s" repeatCount="indefinite"/>
    </rect>
    <path d="M-4,-18 L0,-28 L4,-18" fill="none" stroke="#ff00ff" stroke-width="1.5" filter="url(#glowPink)"/>
    <circle cx="0" cy="-30" r="2.5" fill="#ff00ff" filter="url(#glowPink)">
      <animate attributeName="r" values="2.5;3.5;2.5" dur="2.5s" repeatCount="indefinite"/>
    </circle>
    <path d="M-8,-18 Q-12,-22 -10,-26" fill="none" stroke="#ff00ff" stroke-width="1" opacity="0.4"/>
    <path d="M8,-18 Q12,-22 10,-26" fill="none" stroke="#ff00ff" stroke-width="1" opacity="0.4"/>
    <line x1="12" y1="2" x2="18" y2="-8" stroke="#9900ff" stroke-width="1.5" filter="url(#glowPurple)"/>
    <circle cx="19" cy="-10" r="2" fill="#ff00ff" filter="url(#glowPink)">
      <animate attributeName="r" values="2;2.8;2" dur="2.5s" repeatCount="indefinite"/>
    </circle>
  </g>
</svg>
